<mxfile host="www.draw.io" modified="2020-02-28T15:19:08.633Z" agent="Mozilla/5.0 (Windows NT 10.0; WOW64) AppleWebKit/537.36 (KHTML, like Gecko) Chrome/79.0.3945.130 Safari/537.36" etag="WyyoYN2AhQ8NTDHKrMy6" version="12.7.9" type="github">
  <diagram id="po3zA4SG272vigffaAcC" name="Page-1">
    <mxGraphModel dx="1422" dy="794" grid="1" gridSize="10" guides="1" tooltips="1" connect="1" arrows="1" fold="1" page="1" pageScale="1" pageWidth="850" pageHeight="1100" math="0" shadow="0">
      <root>
        <mxCell id="0" />
        <mxCell id="1" parent="0" />
        <mxCell id="aRDBCnihUyTkHGZ27k8B-54" style="edgeStyle=orthogonalEdgeStyle;rounded=0;orthogonalLoop=1;jettySize=auto;html=1;exitX=1;exitY=0.5;exitDx=0;exitDy=0;entryX=0.5;entryY=0;entryDx=0;entryDy=0;" edge="1" parent="1" source="aRDBCnihUyTkHGZ27k8B-1" target="aRDBCnihUyTkHGZ27k8B-28">
          <mxGeometry relative="1" as="geometry" />
        </mxCell>
        <mxCell id="aRDBCnihUyTkHGZ27k8B-1" value="Input array" style="ellipse;whiteSpace=wrap;html=1;" vertex="1" parent="1">
          <mxGeometry width="120" height="80" as="geometry" />
        </mxCell>
        <mxCell id="aRDBCnihUyTkHGZ27k8B-5" style="edgeStyle=orthogonalEdgeStyle;rounded=0;orthogonalLoop=1;jettySize=auto;html=1;exitX=0.5;exitY=1;exitDx=0;exitDy=0;entryX=0.5;entryY=0;entryDx=0;entryDy=0;" edge="1" parent="1" source="aRDBCnihUyTkHGZ27k8B-2" target="aRDBCnihUyTkHGZ27k8B-4">
          <mxGeometry relative="1" as="geometry" />
        </mxCell>
        <mxCell id="aRDBCnihUyTkHGZ27k8B-2" value="make array to keep track of the &quot;unwanted&quot;" style="rounded=0;whiteSpace=wrap;html=1;" vertex="1" parent="1">
          <mxGeometry y="120" width="120" height="60" as="geometry" />
        </mxCell>
        <mxCell id="aRDBCnihUyTkHGZ27k8B-17" style="edgeStyle=orthogonalEdgeStyle;rounded=0;orthogonalLoop=1;jettySize=auto;html=1;exitX=0.5;exitY=1;exitDx=0;exitDy=0;entryX=0.5;entryY=0;entryDx=0;entryDy=0;" edge="1" parent="1" source="aRDBCnihUyTkHGZ27k8B-4" target="aRDBCnihUyTkHGZ27k8B-9">
          <mxGeometry relative="1" as="geometry" />
        </mxCell>
        <mxCell id="aRDBCnihUyTkHGZ27k8B-4" value="For loop through the whole thing&amp;nbsp;" style="rounded=0;whiteSpace=wrap;html=1;" vertex="1" parent="1">
          <mxGeometry y="220" width="120" height="60" as="geometry" />
        </mxCell>
        <mxCell id="aRDBCnihUyTkHGZ27k8B-19" style="edgeStyle=orthogonalEdgeStyle;rounded=0;orthogonalLoop=1;jettySize=auto;html=1;exitX=0.5;exitY=1;exitDx=0;exitDy=0;entryX=0.5;entryY=0;entryDx=0;entryDy=0;" edge="1" parent="1" source="aRDBCnihUyTkHGZ27k8B-7" target="aRDBCnihUyTkHGZ27k8B-18">
          <mxGeometry relative="1" as="geometry" />
        </mxCell>
        <mxCell id="aRDBCnihUyTkHGZ27k8B-37" style="edgeStyle=orthogonalEdgeStyle;rounded=0;orthogonalLoop=1;jettySize=auto;html=1;exitX=0;exitY=0.5;exitDx=0;exitDy=0;entryX=0.5;entryY=0;entryDx=0;entryDy=0;" edge="1" parent="1" source="aRDBCnihUyTkHGZ27k8B-7" target="aRDBCnihUyTkHGZ27k8B-36">
          <mxGeometry relative="1" as="geometry">
            <Array as="points">
              <mxPoint x="43" y="440" />
              <mxPoint x="43" y="570" />
              <mxPoint x="68" y="570" />
            </Array>
          </mxGeometry>
        </mxCell>
        <mxCell id="aRDBCnihUyTkHGZ27k8B-7" value="bro is it the largest prime ??" style="rhombus;whiteSpace=wrap;html=1;" vertex="1" parent="1">
          <mxGeometry x="62.5" y="410" width="120" height="60" as="geometry" />
        </mxCell>
        <mxCell id="aRDBCnihUyTkHGZ27k8B-34" style="edgeStyle=orthogonalEdgeStyle;rounded=0;orthogonalLoop=1;jettySize=auto;html=1;exitX=0.5;exitY=1;exitDx=0;exitDy=0;entryX=0.5;entryY=0;entryDx=0;entryDy=0;" edge="1" parent="1" source="aRDBCnihUyTkHGZ27k8B-9" target="aRDBCnihUyTkHGZ27k8B-7">
          <mxGeometry relative="1" as="geometry" />
        </mxCell>
        <mxCell id="aRDBCnihUyTkHGZ27k8B-9" value="garb next item" style="rounded=0;whiteSpace=wrap;html=1;" vertex="1" parent="1">
          <mxGeometry y="310" width="120" height="60" as="geometry" />
        </mxCell>
        <mxCell id="aRDBCnihUyTkHGZ27k8B-14" value="No" style="text;html=1;align=center;verticalAlign=middle;resizable=0;points=[];autosize=1;" vertex="1" parent="1">
          <mxGeometry x="32.5" y="420" width="30" height="20" as="geometry" />
        </mxCell>
        <mxCell id="aRDBCnihUyTkHGZ27k8B-15" value="Yes" style="text;html=1;align=center;verticalAlign=middle;resizable=0;points=[];autosize=1;" vertex="1" parent="1">
          <mxGeometry x="122.5" y="470" width="40" height="20" as="geometry" />
        </mxCell>
        <mxCell id="aRDBCnihUyTkHGZ27k8B-21" style="edgeStyle=orthogonalEdgeStyle;rounded=0;orthogonalLoop=1;jettySize=auto;html=1;exitX=1;exitY=0.5;exitDx=0;exitDy=0;entryX=0.5;entryY=1;entryDx=0;entryDy=0;" edge="1" parent="1" source="aRDBCnihUyTkHGZ27k8B-18" target="aRDBCnihUyTkHGZ27k8B-20">
          <mxGeometry relative="1" as="geometry" />
        </mxCell>
        <mxCell id="aRDBCnihUyTkHGZ27k8B-38" style="edgeStyle=orthogonalEdgeStyle;rounded=0;orthogonalLoop=1;jettySize=auto;html=1;exitX=0.5;exitY=1;exitDx=0;exitDy=0;entryX=1;entryY=0;entryDx=0;entryDy=0;" edge="1" parent="1" source="aRDBCnihUyTkHGZ27k8B-18" target="aRDBCnihUyTkHGZ27k8B-36">
          <mxGeometry relative="1" as="geometry" />
        </mxCell>
        <mxCell id="aRDBCnihUyTkHGZ27k8B-18" value="is larger than its element????" style="rhombus;whiteSpace=wrap;html=1;" vertex="1" parent="1">
          <mxGeometry x="62.5" y="500" width="120" height="60" as="geometry" />
        </mxCell>
        <mxCell id="aRDBCnihUyTkHGZ27k8B-39" style="edgeStyle=orthogonalEdgeStyle;rounded=0;orthogonalLoop=1;jettySize=auto;html=1;exitX=0.5;exitY=0;exitDx=0;exitDy=0;entryX=0.5;entryY=1;entryDx=0;entryDy=0;" edge="1" parent="1" source="aRDBCnihUyTkHGZ27k8B-20" target="aRDBCnihUyTkHGZ27k8B-30">
          <mxGeometry relative="1" as="geometry" />
        </mxCell>
        <mxCell id="aRDBCnihUyTkHGZ27k8B-20" value="reset dictionaries to stthis" style="rounded=0;whiteSpace=wrap;html=1;" vertex="1" parent="1">
          <mxGeometry x="200" y="440" width="120" height="60" as="geometry" />
        </mxCell>
        <mxCell id="aRDBCnihUyTkHGZ27k8B-22" value="Yes" style="text;html=1;align=center;verticalAlign=middle;resizable=0;points=[];autosize=1;" vertex="1" parent="1">
          <mxGeometry x="167.5" y="510" width="40" height="20" as="geometry" />
        </mxCell>
        <mxCell id="aRDBCnihUyTkHGZ27k8B-27" value="No" style="text;html=1;align=center;verticalAlign=middle;resizable=0;points=[];autosize=1;" vertex="1" parent="1">
          <mxGeometry x="120" y="560" width="30" height="20" as="geometry" />
        </mxCell>
        <mxCell id="aRDBCnihUyTkHGZ27k8B-55" style="edgeStyle=orthogonalEdgeStyle;rounded=0;orthogonalLoop=1;jettySize=auto;html=1;exitX=0.5;exitY=1;exitDx=0;exitDy=0;entryX=1;entryY=0.5;entryDx=0;entryDy=0;" edge="1" parent="1" source="aRDBCnihUyTkHGZ27k8B-28" target="aRDBCnihUyTkHGZ27k8B-2">
          <mxGeometry relative="1" as="geometry" />
        </mxCell>
        <mxCell id="aRDBCnihUyTkHGZ27k8B-28" value="make a dictionary two dictionary for keeping track" style="rounded=0;whiteSpace=wrap;html=1;" vertex="1" parent="1">
          <mxGeometry x="140" y="70" width="120" height="60" as="geometry" />
        </mxCell>
        <mxCell id="aRDBCnihUyTkHGZ27k8B-32" style="edgeStyle=orthogonalEdgeStyle;rounded=0;orthogonalLoop=1;jettySize=auto;html=1;exitX=0;exitY=0.5;exitDx=0;exitDy=0;entryX=1;entryY=0.5;entryDx=0;entryDy=0;" edge="1" parent="1" source="aRDBCnihUyTkHGZ27k8B-30" target="aRDBCnihUyTkHGZ27k8B-9">
          <mxGeometry relative="1" as="geometry" />
        </mxCell>
        <mxCell id="aRDBCnihUyTkHGZ27k8B-57" style="edgeStyle=orthogonalEdgeStyle;rounded=0;orthogonalLoop=1;jettySize=auto;html=1;exitX=0.5;exitY=0;exitDx=0;exitDy=0;entryX=0;entryY=0.5;entryDx=0;entryDy=0;" edge="1" parent="1" source="aRDBCnihUyTkHGZ27k8B-30" target="aRDBCnihUyTkHGZ27k8B-56">
          <mxGeometry relative="1" as="geometry" />
        </mxCell>
        <mxCell id="aRDBCnihUyTkHGZ27k8B-30" value="is there more elemtns!!" style="rhombus;whiteSpace=wrap;html=1;" vertex="1" parent="1">
          <mxGeometry x="170" y="310" width="120" height="60" as="geometry" />
        </mxCell>
        <mxCell id="aRDBCnihUyTkHGZ27k8B-33" value="Yes" style="text;html=1;align=center;verticalAlign=middle;resizable=0;points=[];autosize=1;" vertex="1" parent="1">
          <mxGeometry x="115" y="320" width="40" height="20" as="geometry" />
        </mxCell>
        <mxCell id="aRDBCnihUyTkHGZ27k8B-44" style="edgeStyle=orthogonalEdgeStyle;rounded=0;orthogonalLoop=1;jettySize=auto;html=1;exitX=1;exitY=0.5;exitDx=0;exitDy=0;entryX=0;entryY=0.5;entryDx=0;entryDy=0;" edge="1" parent="1" source="aRDBCnihUyTkHGZ27k8B-36" target="aRDBCnihUyTkHGZ27k8B-42">
          <mxGeometry relative="1" as="geometry" />
        </mxCell>
        <mxCell id="aRDBCnihUyTkHGZ27k8B-48" style="edgeStyle=orthogonalEdgeStyle;rounded=0;orthogonalLoop=1;jettySize=auto;html=1;exitX=0.5;exitY=1;exitDx=0;exitDy=0;entryX=1;entryY=1;entryDx=0;entryDy=0;" edge="1" parent="1" source="aRDBCnihUyTkHGZ27k8B-36" target="aRDBCnihUyTkHGZ27k8B-30">
          <mxGeometry relative="1" as="geometry">
            <Array as="points">
              <mxPoint x="68" y="670" />
              <mxPoint x="370" y="670" />
              <mxPoint x="370" y="420" />
              <mxPoint x="290" y="420" />
              <mxPoint x="290" y="380" />
              <mxPoint x="260" y="380" />
            </Array>
          </mxGeometry>
        </mxCell>
        <mxCell id="aRDBCnihUyTkHGZ27k8B-36" value="bro is it the smallest prime//???" style="rhombus;whiteSpace=wrap;html=1;" vertex="1" parent="1">
          <mxGeometry x="7.5" y="590" width="120" height="60" as="geometry" />
        </mxCell>
        <mxCell id="aRDBCnihUyTkHGZ27k8B-41" style="edgeStyle=orthogonalEdgeStyle;rounded=0;orthogonalLoop=1;jettySize=auto;html=1;exitX=0;exitY=0.5;exitDx=0;exitDy=0;entryX=1;entryY=0.5;entryDx=0;entryDy=0;" edge="1" parent="1" source="aRDBCnihUyTkHGZ27k8B-40" target="aRDBCnihUyTkHGZ27k8B-30">
          <mxGeometry relative="1" as="geometry" />
        </mxCell>
        <mxCell id="aRDBCnihUyTkHGZ27k8B-40" value="reset spot in dictories to thsi" style="rounded=0;whiteSpace=wrap;html=1;" vertex="1" parent="1">
          <mxGeometry x="330" y="350" width="120" height="60" as="geometry" />
        </mxCell>
        <mxCell id="aRDBCnihUyTkHGZ27k8B-50" style="edgeStyle=orthogonalEdgeStyle;rounded=0;orthogonalLoop=1;jettySize=auto;html=1;exitX=1;exitY=0.5;exitDx=0;exitDy=0;entryX=1;entryY=0.5;entryDx=0;entryDy=0;" edge="1" parent="1" source="aRDBCnihUyTkHGZ27k8B-42" target="aRDBCnihUyTkHGZ27k8B-40">
          <mxGeometry relative="1" as="geometry" />
        </mxCell>
        <mxCell id="aRDBCnihUyTkHGZ27k8B-66" style="edgeStyle=orthogonalEdgeStyle;rounded=0;orthogonalLoop=1;jettySize=auto;html=1;exitX=0.5;exitY=1;exitDx=0;exitDy=0;entryX=1;entryY=0.5;entryDx=0;entryDy=0;" edge="1" parent="1" source="aRDBCnihUyTkHGZ27k8B-42" target="aRDBCnihUyTkHGZ27k8B-65">
          <mxGeometry relative="1" as="geometry">
            <Array as="points">
              <mxPoint x="215" y="700" />
              <mxPoint x="490" y="700" />
              <mxPoint x="490" y="310" />
            </Array>
          </mxGeometry>
        </mxCell>
        <mxCell id="aRDBCnihUyTkHGZ27k8B-42" value="is smaller than emelmt!??" style="rhombus;whiteSpace=wrap;html=1;" vertex="1" parent="1">
          <mxGeometry x="155" y="590" width="120" height="60" as="geometry" />
        </mxCell>
        <mxCell id="aRDBCnihUyTkHGZ27k8B-45" value="Yes" style="text;html=1;align=center;verticalAlign=middle;resizable=0;points=[];autosize=1;" vertex="1" parent="1">
          <mxGeometry x="122.5" y="600" width="40" height="20" as="geometry" />
        </mxCell>
        <mxCell id="aRDBCnihUyTkHGZ27k8B-49" value="No" style="text;html=1;align=center;verticalAlign=middle;resizable=0;points=[];autosize=1;" vertex="1" parent="1">
          <mxGeometry x="80" y="640" width="30" height="20" as="geometry" />
        </mxCell>
        <mxCell id="aRDBCnihUyTkHGZ27k8B-51" value="Yes" style="text;html=1;align=center;verticalAlign=middle;resizable=0;points=[];autosize=1;" vertex="1" parent="1">
          <mxGeometry x="260" y="600" width="40" height="20" as="geometry" />
        </mxCell>
        <mxCell id="aRDBCnihUyTkHGZ27k8B-52" value="No" style="text;html=1;align=center;verticalAlign=middle;resizable=0;points=[];autosize=1;" vertex="1" parent="1">
          <mxGeometry x="230" y="640" width="30" height="20" as="geometry" />
        </mxCell>
        <mxCell id="aRDBCnihUyTkHGZ27k8B-59" style="edgeStyle=orthogonalEdgeStyle;rounded=0;orthogonalLoop=1;jettySize=auto;html=1;exitX=1;exitY=0.5;exitDx=0;exitDy=0;entryX=0;entryY=0.5;entryDx=0;entryDy=0;" edge="1" parent="1" source="aRDBCnihUyTkHGZ27k8B-56" target="aRDBCnihUyTkHGZ27k8B-58">
          <mxGeometry relative="1" as="geometry" />
        </mxCell>
        <mxCell id="aRDBCnihUyTkHGZ27k8B-56" value="prnt the largge once" style="rounded=0;whiteSpace=wrap;html=1;" vertex="1" parent="1">
          <mxGeometry x="260" y="210" width="120" height="60" as="geometry" />
        </mxCell>
        <mxCell id="aRDBCnihUyTkHGZ27k8B-61" style="edgeStyle=orthogonalEdgeStyle;rounded=0;orthogonalLoop=1;jettySize=auto;html=1;exitX=1;exitY=0.5;exitDx=0;exitDy=0;entryX=0;entryY=0.5;entryDx=0;entryDy=0;" edge="1" parent="1" source="aRDBCnihUyTkHGZ27k8B-58" target="aRDBCnihUyTkHGZ27k8B-60">
          <mxGeometry relative="1" as="geometry" />
        </mxCell>
        <mxCell id="aRDBCnihUyTkHGZ27k8B-58" value="print sthe small one" style="rounded=0;whiteSpace=wrap;html=1;" vertex="1" parent="1">
          <mxGeometry x="420" y="210" width="120" height="60" as="geometry" />
        </mxCell>
        <mxCell id="aRDBCnihUyTkHGZ27k8B-63" style="edgeStyle=orthogonalEdgeStyle;rounded=0;orthogonalLoop=1;jettySize=auto;html=1;exitX=0.5;exitY=0;exitDx=0;exitDy=0;entryX=0.5;entryY=1;entryDx=0;entryDy=0;" edge="1" parent="1" source="aRDBCnihUyTkHGZ27k8B-60" target="aRDBCnihUyTkHGZ27k8B-62">
          <mxGeometry relative="1" as="geometry" />
        </mxCell>
        <mxCell id="aRDBCnihUyTkHGZ27k8B-60" value="print eh rest" style="rounded=0;whiteSpace=wrap;html=1;" vertex="1" parent="1">
          <mxGeometry x="610" y="210" width="120" height="60" as="geometry" />
        </mxCell>
        <mxCell id="aRDBCnihUyTkHGZ27k8B-62" value="suffer" style="ellipse;whiteSpace=wrap;html=1;" vertex="1" parent="1">
          <mxGeometry x="540" y="50" width="120" height="80" as="geometry" />
        </mxCell>
        <mxCell id="aRDBCnihUyTkHGZ27k8B-64" value="No" style="text;html=1;align=center;verticalAlign=middle;resizable=0;points=[];autosize=1;" vertex="1" parent="1">
          <mxGeometry x="200" y="290" width="30" height="20" as="geometry" />
        </mxCell>
        <mxCell id="aRDBCnihUyTkHGZ27k8B-67" style="edgeStyle=orthogonalEdgeStyle;rounded=0;orthogonalLoop=1;jettySize=auto;html=1;exitX=0;exitY=0.5;exitDx=0;exitDy=0;entryX=1;entryY=0;entryDx=0;entryDy=0;" edge="1" parent="1" source="aRDBCnihUyTkHGZ27k8B-65" target="aRDBCnihUyTkHGZ27k8B-30">
          <mxGeometry relative="1" as="geometry">
            <Array as="points">
              <mxPoint x="260" y="310" />
            </Array>
          </mxGeometry>
        </mxCell>
        <mxCell id="aRDBCnihUyTkHGZ27k8B-65" value="add to untouchables array ???" style="rounded=0;whiteSpace=wrap;html=1;" vertex="1" parent="1">
          <mxGeometry x="330" y="280" width="120" height="60" as="geometry" />
        </mxCell>
      </root>
    </mxGraphModel>
  </diagram>
</mxfile>
